<svg enable-background="new 0 0 106.5 127.1" viewBox="0 0 106.5 127.1" xmlns="http://www.w3.org/2000/svg" xmlns:xlink="http://www.w3.org/1999/xlink"><clipPath id="a"><path d="m-3471.1-7170.1h1920v6000h-1920z"/></clipPath><clipPath id="b"><path d="m-3471.1-7170.1h1920v6000h-1920z"/></clipPath><circle cx="2386.5" cy="-1041.9" fill="#d85530" r="79.9"/><path d="m2339.6-1078.4v60.6c0 2.4 2 4.4 4.4 4.4h82.5c2.4 0 4.4-2 4.4-4.4v-51.9c0-2.4-2-4.4-4.4-4.4h-49c-2.4 0-4.4-2-4.4-4.4 0-2.4-2-4.4-4.4-4.4h-24.8c-2.4.1-4.3 2.1-4.3 4.5z" fill="#fff"/><circle cx="2590.9" cy="-1038.5" fill="#d85530" r="79.9"/><path d="m2617-988.9h-52.2c-5.8 0-10.6-4.7-10.6-10.6v-72.8c0-5.8 4.7-10.6 10.6-10.6h52.2c5.8 0 10.6 4.7 10.6 10.6v72.8c0 5.9-4.8 10.6-10.6 10.6z" fill="#fff"/><circle cx="2388.5" cy="-859.2" fill="#d85530" r="78.3"/><path d="m2637.3-555.6v-99.2s81-13.1 83.4 54.4c2.5 70.5-84.5 52.8-84.5 52.8" fill="none" stroke="#808285" stroke-miterlimit="10" stroke-width="3.9862"/><path d="m2646.1-556v-89.1s60.7-8.9 62.2 45.5c.6 20.2-9.9 31.1-20.5 37-9.1 5-19.6 6.8-29.9 5.6l-2.5-.3v-78" fill="none" stroke="#808285" stroke-miterlimit="10" stroke-width="3.881"/><path d="m879.9-1596.1h1280v500h-1280z" fill="none" stroke="#ddd" stroke-miterlimit="10"/><image height="346" overflow="visible" transform="translate(1439.519 -1014.8096)" width="454" xlink:href="8604E2B66299BBE4.png"/><path d="m2188-1018.6-1342.4-115.4v-500l1359.4-38.9z" fill="#58595b"/><circle cx="1191.9" cy="-1344.3" fill="#d85530" r="116.2"/><path d="m1119.2-1434.9-278.3 179.8v159h182.8l241.5-157.9z" fill="#d85530"/><circle cx="1808.9" cy="-1348" fill="#3dc0cb" r="116.2"/><path d="m1881.6-1257.3 278.3-179.8v-159h-182.8l-241.5 157.9z" fill="#3dc0cb"/><image height="88" overflow="visible" transform="translate(2262.5808 -1493.6097)" width="88" xlink:href="8604E2B66299BBE5.png"/><image height="88" overflow="visible" transform="translate(1172.5323 -830.2761)" width="88" xlink:href="8604E2B66299BBE3.png"/><image height="1244" overflow="visible" transform="matrix(.3155 .06963499 -.06963499 .3155 755.9706 -1585.4955)" width="1920" xlink:href="../../../interactive-design-2/SAAS High-Fid/Moodboards/smartphone.png"/><path d="m1066.9-1202.6c-.3 0-.6 0-.8-.1l-128.5-28.5c-1-.2-1.9-.9-2.5-1.8s-.8-2-.5-3.1l52.9-238.4c.4-1.9 2-3.2 3.8-3.2.3 0 .6 0 .9.1l127.5 29.4c2.1.5 3.5 2.7 3 4.9l-51.9 237.4c-.4 2-2 3.3-3.9 3.3z" fill="#375fa3"/><path d="m991.4-1475.6h.4l127.5 29.4c1.1.2 1.7 1.4 1.5 2.5l-51.9 237.4c-.2.9-1 1.6-1.9 1.6-.1 0-.3 0-.4 0l-128.5-28.5c-.7-.1-1-.6-1.2-.9-.3-.5-.4-1.1-.3-1.6l52.9-238.4c.2-.8 1-1.5 1.9-1.5m0-4c-2.7 0-5.2 1.9-5.8 4.7l-52.9 238.4c-.7 3.3 1.3 6.6 4.5 7.3l128.5 28.5c.4.1.8.1 1.3.1 2.7 0 5.2-1.9 5.8-4.8l51.9-237.4c.7-3.3-1.3-6.5-4.5-7.3l-127.5-29.4c-.5-.1-.9-.1-1.3-.1z" fill="#e2e3e1"/><path d="m980.3-1373.5 6.1 60.3c.2 2.4 2.4 4.1 4.8 3.9l82.1-8.4c2.4-.2 4.1-2.4 3.9-4.8l-5.3-51.6c-.2-2.4-2.4-4.1-4.8-3.9l-48.8 5c-2.4.2-4.5-1.5-4.8-3.9-.2-2.4-2.4-4.1-4.8-3.9l-24.6 2.5c-2.3.3-4 2.4-3.8 4.8z" fill="#3dc0cb"/><path d="m1044.4-1441.9 39.7-18.5s4.7 8.7 11.7 8.4l-16.9 24.7s-1 8.8-8.3 9.1c-7.3.4-26-19.3-26.2-23.7z" fill="#fff"/><path d="m1076.1-1420.9 2.8-6.5 27.2-42.5.8 18.5z" fill="#bebec0"/><path d="m1028.4-1392.6s23.5 12.6 31.7 4.1l-32.6 51.6s-10 3-11.9-.1z" fill="#ddd"/><path d="m1039.6-1387.9 11.9-27s14 23.7 8.6 26.4-6.3 5-20.5.6z" fill="#fff"/><path d="m1134.9-1502s11 48.5 25 53l32-4.2-8.5-51.5s-29 12-36 9.2-12.5-6.5-12.5-6.5z" fill="#ddd"/><path d="m1134.9-1502s-.2-5.8 5-8.2l13.2 14.9s-7.8 3.7-18.2-6.7z" fill="#fff"/><path d="m996.7-1350.4s1.9 34.8-10.2 37.2c0 0 .4 3.9 4.8 3.9s89.1-9.5 89.1-9.5 3 0 3-6-4-45-4-45l-84 8.7z" fill="#89d1d1"/><path d="m1234.3-1532.8-4.5 26s9.5-20 15.2-20z" fill="#ddd"/><path d="m1281.8-1514.7-20 37.5c-43.8 4.9-32-27.4-32-29.6s8.3-14.2 8.3-14.2.5 10.7 10.7 12.4 33-6.1 33-6.1z" fill="#fff"/><path d="m1297.9-1535.3-36.1-11.1s15.7-22.5 12.9-31.7l26.4 34.7c.1-.1 2.5 4.7-3.2 8.1z" fill="#bebec0"/><path d="m1266.8-1538.1 20.9-.4-22.6-6.9z" fill="#fff"/><path d="m1264.1-1549.9s-8-33.3-10.5-35.6c0 0 27-.1 22.2 15.1-5.3 17-8.3 17-11.7 20.5z" fill="#fff"/><path d="m1911.7-1236.8 36.5 35.7s-7.6 8.7-4.3 16.3l-33.9-8.3s-10 2.5-13.4-5.3c-3.4-7.9 10.3-36.3 15.1-38.4z" fill="#fff"/><path d="m1901.8-1193.5 8.2.3 57.7 12.2-19.9 8.6z" fill="#bebec0"/><path d="m2083.8-1429 .1 23.5s5.2-19 10.2-19.9z" fill="#ddd"/><path d="m2128.2-1420.6-11.7 36c-37.6 11.1-32.3-19-32.6-20.9s5-13.7 5-13.7 2.1 9.3 11.3 9.2 28-10.6 28-10.6z" fill="#fff"/><path d="m2081-1235.3-37.5-4.6s11.5-24.9 7.2-33.5l32.1 29.5s3.2 4.2-1.8 8.6z" fill="#bebec0"/><path d="m2049.8-1232.6 20.6-4-23.5-2.9z" fill="#fff"/><path d="m2045.1-1243.7s-13.7-31.4-16.6-33.2c0 0 26.6-4.9 24.5 11-2.2 17.6-5.1 18.1-7.9 22.2z" fill="#fff"/><path d="m2058.4-1335.4s-5.2 10.4.4 19.6l6.6-6.5s33 7.8 51.5 16.7 24.3 11.7 24.3 11.7-24.8-31.6-26.2-41.3c0-.1-42.2 8.9-56.6-.2z" fill="#fff"/><path d="m2061.7-1315.5 78.2 20.5s-53.3-26.8-74.5-27.3c0 0-5.3 3.7-6.6 6.5z" fill="#c6c7c8"/><path d="m1934.1-1268 .1 26.4s5.8-21.4 11.5-22.4z" fill="#ddd"/><path d="m1984-1258.5-13.1 40.5c-42.2 12.5-36.3-21.3-36.7-23.5s5.7-15.4 5.7-15.4 2.4 10.4 12.7 10.3 31.4-11.9 31.4-11.9z" fill="#fff"/><path d="m824.7-988.9-1506.6-99.8-49.2-584.2 1432 30z" fill="#3dc0cb"/><circle cx="121.2" cy="-1391.9" fill="#db7458" r="116.2"/><path d="m29.2-1320.9 174.6 281.6 159 3 85.6-51.7-235.5-375.4z" fill="#db7458"/><circle cx="-131.3" cy="-1252.3" fill="#d95630" r="116.2"/><path d="m-38.8-1322.5-172.4-283-158.9-4.2-104.2 21.6 250.8 406.7z" fill="#d95630"/><path d="m-175.4-1045.3h765.1v203.8h-765.1z" fill="#fff"/><image height="3355" overflow="visible" transform="matrix(.1493 0 0 .1497 -885.2648 -1599.6204)" width="5032" xlink:href="../../../interactive-design-2/SAAS High-Fid/Moodboards/Man with phone.png"/><path d="m-207.1-1423.1h-56.5c-6.1 0-11.1-5-11.1-11.1v-47.4c0-6.1 5-11.1 11.1-11.1h56.5c6.1 0 11.1 5 11.1 11.1v47.4c0 6.1-5 11.1-11.1 11.1z" fill="#fdeb64"/><path d="m-264.5-1492.6s-1.7-34.5 28.2-34.5c33.7 0 30.8 34.5 30.8 34.5l-10.4-.2s-1.5-26.3-19.1-25.4c-18.4 1-18.9 25.6-18.9 25.6z" fill="#e2e3e1"/><path d="m-204.6-1423.1h-29.7c-4.7 0-8.5-3.8-8.5-8.5v-52.5c0-4.7 3.8-8.5 8.5-8.5h29.7c4.7 0 8.5 3.8 8.5 8.5v52.5c.1 4.7-3.8 8.5-8.5 8.5z" fill="#fad548"/><path d="m-237.1-1476.2c-.2 0-.3 0-.5 0-1.6.3-9.6 2.1-8.2 11.7 0 0 .4 2.5 2.2 4 .8.7 1.1 1.7.9 2.7l-3.2 13.4c-.1.2-.1.4-.1.7v1.4c0 1.5 1.2 2.8 2.8 2.8h12.8c1.5 0 2.8-1.2 2.8-2.8v-1.7c0-.3 0-.5-.1-.8l-3.7-12.6c-.3-1 0-2 .7-2.7 1.4-1.4 3.4-4.1 3.1-7.8-.4-5.4-5.2-8.2-9.5-8.3z" fill="#231f20"/><circle cx="-236.8" cy="-1388.8" fill="#fff" r="4.8"/><circle cx="-236.8" cy="-1368.2" fill="#fff" r="4.8"/><circle cx="-236.8" cy="-1347.6" fill="#fff" r="4.8"/><circle cx="-236.8" cy="-1409.4" fill="#fff" r="4.8"/><circle cx="-236.8" cy="-1327.5" fill="#fff" r="4.8"/><path d="m1552-1829.8-1454-28.3 28.2-604.6 1393.7-23.4z" fill="#d95630"/><circle cx="803.6" cy="-2105.9" fill="#db7458" r="116.2"/><path d="m732.4-2197.8-572.5 356.5 288.5-22.4 51.9 85.6 375-236.3z" fill="#db7458"/><circle cx="1062.9" cy="-2264" fill="#3dc0cb" r="116.2"/><path d="m1136.2-2173.8 349.4-229.1-73.4-111.6-53.9-84.3-369.3 245.1z" fill="#3dc0cb"/><image height="1176" overflow="visible" transform="matrix(-.343 .1429 .1429 .343 1351.8066 -2457.9255)" width="1572" xlink:href="../../../interactive-design-2/SAAS High-Fid/Moodboards/Phone.png"/><path d="m988-2068.4 181.3 87.3 194.7-310-173.3-42z" fill="#db7458" stroke="#fff" stroke-miterlimit="10" stroke-width="3"/><circle cx="1054.5" cy="-2324.5" fill="#375fa3" r="50.3"/><path d="m1045.1-2354.2 25.8 4.2c4.9.8 8.3 5.5 7.4 10.4l-6.9 39.4c-.9 5.1-5.8 8.4-10.8 7.5l-24.4-4.6c-4.5-.8-7.4-5.1-6.5-9.6l7.9-42c.7-3.5 4-5.8 7.5-5.3z" fill="none" stroke="#fff" stroke-miterlimit="10" stroke-width="3.5191"/><path d="m1044-2340.4 26 4" fill="none" stroke="#fff" stroke-miterlimit="10" stroke-width="1.7595"/><path d="m1042.4-2332.5 26 4" fill="none" stroke="#fff" stroke-miterlimit="10" stroke-width="1.7595"/><path d="m1041-2325.4 26 3.9" fill="none" stroke="#fff" stroke-miterlimit="10" stroke-width="1.7595"/><path d="m1039.5-2317.7 26 3.9" fill="none" stroke="#fff" stroke-miterlimit="10" stroke-width="1.7595"/><path d="m1037.9-2310.5 26 4" fill="none" stroke="#fff" stroke-miterlimit="10" stroke-width="1.7595"/><circle cx="1151.1" cy="-2284.6" fill="#375fa3" r="42.6"/><path d="m1131-2288.5c-.6-7.5 5-14.3 12.5-14.9 2.6-.2 5.5 0 8.5.7 10.5 2.7 11.5 12.7 11.5 12.7 4.2 0 8.5 1.1 10.2 2.8s1.9 6 1.9 6c5.7 0 6.5 0 8.3 3.5s-2.8 8.1-2.8 8.1l-53.5 1.1s-8.1 1.1-8.1-10.1c0-10.9 11.5-9.9 11.5-9.9z" fill="#fff"/><circle cx="1305.7" cy="-2262.5" fill="#375fa3" r="43.6"/><path d="m1280.5-2281.1-6 26.6c-.8 3.4 1.4 6.8 4.8 7.5l43.7 9.9c3.4.8 6.8-1.4 7.5-4.8l6-26.6c.8-3.4-1.4-6.8-4.8-7.5l-43.7-9.9c-1.7-.4-3.4 0-4.8.8-1.3.9-2.3 2.3-2.7 4z" fill="none" stroke="#fff" stroke-miterlimit="10" stroke-width="3.4938"/><path d="m1304.3-2256.5-17.6-27.8c-.5-.8.2-1.8 1.1-1.6l43.6 9.9c1.3.3 1.6 2 .4 2.7z" fill="none" stroke="#fff" stroke-miterlimit="10" stroke-width="2.9115"/><path d="m1279.2-2247 18.9-17.2 6 8.7 9.3-5.2 9.5 23.6" fill="none" stroke="#fff" stroke-miterlimit="10" stroke-width="3.3705"/><circle cx="1322.6" cy="-2130.4" fill="#375fa3" r="70.5"/><path d="m1278.9-2156.9-6.1 49c-.2 2 1.2 3.8 3.1 4l85.5 10.6c2 .2 3.8-1.2 4-3.1l6.1-48.8c.2-2-1.2-3.8-3.1-4l-37.5-4.7c-2-.2-3.4-2-3.1-4l.1-.5c.2-2-1.2-3.8-3.1-4l-27.9-3.5c-2-.2-3.8 1.2-4 3.1-.2 1.9-1.9 3.3-3.8 3.1l-6.2-.4c-2.1-.1-3.8 1.3-4 3.2z" fill="#fff"/><circle cx="1305.7" cy="-2129.8" fill="#375fa3" r="18.9"/><circle cx="1305.7" cy="-2129.8" fill="#fff" r="11.4"/><path d="m1360-2134.5-11.8-1.5c-2.1-.3-3.5-2.1-3.3-4.2.3-2.1 2.1-3.5 4.2-3.3l11.8 1.5c2.1.3 3.5 2.1 3.3 4.2-.3 2.1-2.1 3.5-4.2 3.3z" fill="#375fa3"/><path d="m3604.7-1512h907.3v183.6h-907.3z" fill="#58595b"/><path d="m1108.4-2145.4 38.9-54c2.1-2.8 5.8-3.8 9-2.3l31.9 15.1c3.9 1.9 5.4 6.7 3.1 10.4-2.3 3.7-.9 8.6 3.1 10.4l47.4 22.2c4 1.9 5.4 6.9 3 10.6l-34.6 51.5c-2.2 3.3-6.6 4.2-9.9 2.1l-89.8-55.8c-3.6-2-4.5-6.8-2.1-10.2z" fill="#3dc0cb"/><path d="m1107.3-2139.3-15.3-63.1 95 50.3 23.2 70.8s-3.4 6.1-9.9 2.1-89.8-55.8-89.8-55.8z" fill="#89d1d1"/><g fill="#fff"><circle cx="1081.1" cy="-2262.5" r="2.7"/><circle cx="1085.8" cy="-2251.8" r="2.7"/><circle cx="1090.5" cy="-2241.2" r="2.7"/><circle cx="1076.3" cy="-2273.1" r="2.7"/><circle cx="1095.1" cy="-2230.8" r="2.7"/><circle cx="1234.2" cy="-2137.7" r="2.7"/><circle cx="1222.6" cy="-2138.5" r="2.7"/><circle cx="1211" cy="-2139.2" r="2.7"/><circle cx="1245.9" cy="-2136.9" r="2.7"/><circle cx="1199.6" cy="-2140" r="2.7"/><circle cx="1209.8" cy="-2184" r="2.7"/><circle cx="1200.8" cy="-2176.6" r="2.7"/><circle cx="1191.8" cy="-2169.3" r="2.7"/><circle cx="1218.8" cy="-2191.4" r="2.7"/><circle cx="1183" cy="-2162" r="2.7"/><circle cx="1253.2" cy="-2222.6" r="2.7"/><circle cx="1244.5" cy="-2214.8" r="2.7"/><circle cx="1235.8" cy="-2207" r="2.7"/><circle cx="1261.8" cy="-2230.4" r="2.7"/><circle cx="1227.4" cy="-2199.4" r="2.7"/><circle cx="1154.1" cy="-2211.6" r="2.7"/><circle cx="1154.9" cy="-2200" r="2.7"/><circle cx="1155.7" cy="-2188.4" r="2.7"/><circle cx="1153.2" cy="-2223.3" r="2.7"/><circle cx="1156.6" cy="-2177" r="2.7"/><circle cx="1146.2" cy="-2280.9" r="2.7"/><circle cx="1151.6" cy="-2234.9" r="2.7"/><text font-family="Roboto-Black" font-size="145.6408" transform="translate(2345.5337 -807.083)">D</text></g><image height="457" overflow="visible" transform="translate(2729.0156 -888.1152)" width="276" xlink:href="8604E2B66299BBEC.png"/><image height="457" overflow="visible" transform="translate(-2330.5342 -2884.4961)" width="276" xlink:href="8604E2B66299BBE6.png"/><circle cx="517.6" cy="-757.6" fill="#3dc0cb" r="84.2"/><path d="m-2269.8-2307.1-36.1-11.1s15.7-22.5 12.9-31.7l26.4 34.7c.1 0 2.5 4.7-3.2 8.1z" fill="#bebec0"/><path d="m-2301-2309.9 21-.3-22.7-7z" fill="#fff"/><path d="m-2303.7-2321.6s-8-33.3-10.5-35.6c0 0 27-.1 22.2 15.1-5.3 17-8.2 17-11.7 20.5z" fill="#fff"/><path d="m496.9-781.1s11 48.5 25 53l32-4.2-8.5-51.5s-29 12-36 9.2-12.5-6.5-12.5-6.5z" fill="#ddd"/><path d="m496.9-781.1s-.2-5.8 5-8.2l13.2 14.9s-7.8 3.6-18.2-6.7z" fill="#fff"/><circle cx="1864.8" cy="441.4" fill="#d95630" r="128.7"/><path d="m1769.7 379.5v121.5h82.2v-96.4h-24.9v-25.1z" fill="#fff"/><path d="m1935.5 379.5 24.3 25.1h-24.3z" fill="#bebec0"/><path d="m1827 379.5 24.9 25.1h-24.9z" fill="#bebec0"/><path d="m1877.3 379.5h58.2v25.1h24.3v98.7h-82.5z" fill="#fff"/><path d="m1896 417.4h45c1.6 0 1.6-2.5 0-2.5-15 0-30 0-45 0-1.6 0-1.6 2.5 0 2.5z" fill="#bebec0"/><path d="m1917.5 432.1h23.5c1.2 0 1.2-1.8 0-1.8-7.8 0-15.7 0-23.5 0-1.1 0-1.1 1.8 0 1.8z" fill="#bebec0"/><path d="m1896 450.5h45c1.6 0 1.6-2.5 0-2.5-15 0-30 0-45 0-1.6 0-1.6 2.5 0 2.5z" fill="#bebec0"/><path d="m1917.5 467.8h22.5c1.6 0 1.6-2.5 0-2.5-7.5 0-15 0-22.5 0-1.6 0-1.6 2.5 0 2.5z" fill="#bebec0"/><path d="m1896 483.8h45c1.6 0 1.6-2.5 0-2.5-15 0-30 0-45 0-1.6 0-1.6 2.5 0 2.5z" fill="#bebec0"/><path d="m1831.9 420.1v22.3h51.7v8.1l29.7-19.4-29.7-19.1v7.8z" fill="#3dc0cb"/><path d="m1895.6 479.7v-22.2h-51.6v-8.2l-29.7 19.5 29.7 19.1v-7.8z" fill="#3dc0cb"/><path d="m1777.8 417.5h45c1.6 0 1.6-2.5 0-2.5-15 0-30 0-45 0-1.6 0-1.6 2.5 0 2.5z" fill="#bebec0"/><path d="m1777.8 432.5h45c1.6 0 1.6-2.5 0-2.5-15 0-30 0-45 0-1.6 0-1.6 2.5 0 2.5z" fill="#bebec0"/><path d="m1777.8 450.6h45c1.6 0 1.6-2.5 0-2.5-15 0-30 0-45 0-1.6 0-1.6 2.5 0 2.5z" fill="#bebec0"/><path d="m1777.8 467.8h22.5c1.6 0 1.6-2.5 0-2.5-7.5 0-15 0-22.5 0-1.6 0-1.6 2.5 0 2.5z" fill="#bebec0"/><path d="m1777.8 483.8h45c1.6 0 1.6-2.5 0-2.5-15 0-30 0-45 0-1.6 0-1.6 2.5 0 2.5z" fill="#bebec0"/><circle cx="1888.4" cy="6.1" fill="#d95730" r="120.5"/><path d="m1806.1 24.3c.1-.9.2-1.8.3-2.7 0-.5.3-2 0-.1.1-.5.1-1 .2-1.6.2-1.4.5-2.8.7-4.1 1.5-7.5 3.7-15.2 6.6-22.1 8.5-20.1 24.1-36.8 45.4-43.6 18-5.8 37.4-4.8 55.8-1.1 6.8 1.4 9.8-9.1 2.9-10.5-31.8-6.3-66.5-4.4-91.5 18.3-15.3 13.9-24.8 33.5-29.1 53.5-1 4.6-1.9 9.4-2.2 14.1-.4 6.9 10.4 6.9 10.9-.1z" fill="#fff"/><path d="m1945.4-30.7c-1.2-.9-.2-.2.4.3 1 .9 2 1.8 2.9 2.7 3.2 3.3 6 6.9 8.4 10.8 8.9 14.3 12.5 30.9 12.7 47.5 0 5.6 8.7 5.6 8.7 0-.2-24.4-8-53.6-28.7-69-4.5-3.2-8.8 4.3-4.4 7.7z" fill="#fff"/><path d="m1887.4 1.5s-15.7 17.6-13.3 24.6c1.3 3.8 3.9 6.2 7.2 7.1 4.3 1.2 8.9-.8 11.3-4.6l51.6-80c1.2-1.9 2-4.4.8-6.2-.4-.6-.8-1.3-1.9-1.9-3.3-1.9-5.2-.7-8.7 3.7-4.1 5.1-47 57.3-47 57.3z" fill="#38bfcc"/><path d="m1820.4 22.8h20.5" fill="#d95730"/><path d="m1820.4 27.1h20.4c5.6 0 5.6-8.7 0-8.7-6.8 0-13.6 0-20.4 0-5.6 0-5.6 8.7 0 8.7z" fill="#fff"/><path d="m1830.4-11.6 17.4 10.8" fill="#d95730"/><path d="m1828.2-7.9c5.8 3.6 11.6 7.2 17.4 10.8 4.8 3 9.1-4.6 4.4-7.5-5.8-3.6-11.6-7.2-17.4-10.8-4.7-2.9-9.1 4.6-4.4 7.5z" fill="#fff"/><path d="m1854.2-36.6 10.6 17.5" fill="#d95730"/><path d="m1850.5-34.4c3.5 5.8 7 11.7 10.5 17.5 2.9 4.8 10.4.4 7.5-4.4-3.5-5.8-7-11.7-10.5-17.5-2.9-4.8-10.4-.4-7.5 4.4z" fill="#fff"/><path d="m1887.6-44.4.2 20.5" fill="#d95730"/><path d="m1883.3-44.4c.1 6.8.1 13.6.2 20.4.1 5.6 8.8 5.6 8.7 0-.1-6.8-.1-13.6-.2-20.4-.1-5.5-8.8-5.6-8.7 0z" fill="#fff"/><path d="m1945.5-9-17.5 10.4" fill="#d95730"/><path d="m1943.4-12.8c-5.9 3.5-11.7 6.9-17.6 10.4-4.8 2.8-.4 10.4 4.4 7.5 5.9-3.5 11.7-6.9 17.6-10.4 4.8-2.8.4-10.3-4.4-7.5z" fill="#fff"/><path d="m1954 24.3h-20.4" fill="#d95730"/><path d="m1954 19.9c-6.8 0-13.6 0-20.4 0-5.6 0-5.6 8.7 0 8.7h20.4c5.6 0 5.6-8.7 0-8.7z" fill="#fff"/><circle cx="2213.4" cy="247.1" fill="#d95730" r="120.5"/><path d="m2129.1 251.8h171.4" fill="#d95730"/><path d="m2129.1 256.8h57.8 92.2 21.4c6.4 0 6.4-10 0-10-19.3 0-38.5 0-57.8 0-30.7 0-61.5 0-92.2 0-7.1 0-14.3 0-21.4 0-6.5 0-6.5 10 0 10z" fill="#fff"/><circle cx="2154.6" cy="224.9" fill="#38bfcc" r="21.8"/><circle cx="2270.5" cy="224.9" fill="#38bfcc" r="21.8"/><path d="m2188.6 290.8 19.3-31.3c3-4.8 9.9-4.9 13-.1l19.9 31.3c3.2 5.1-.4 11.8-6.5 11.8h-39.3c-5.9 0-9.5-6.6-6.4-11.7z" fill="#fff"/><ellipse cx="2276.1" cy="215.1" fill="#88d2dd" rx="10.8" ry="15.8" transform="matrix(.5 -.866 .866 .5 951.7563 2078.6755)"/><ellipse cx="2278.3" cy="211.1" fill="#d0e0e1" rx="5.1" ry="9.5" transform="matrix(.5 -.866 .866 .5 956.3258 2078.6755)"/><ellipse cx="2159.6" cy="215.1" fill="#88d2dd" rx="10.8" ry="15.8" transform="matrix(.5 -.866 .866 .5 893.5063 1977.7834)"/><ellipse cx="2161.8" cy="211.1" fill="#d0e0e1" rx="5.1" ry="9.5" transform="matrix(.5 -.866 .866 .5 898.0758 1977.7834)"/><circle cx="2487.3" cy="348.1" fill="#d95730" r="120.5"/><path d="m2423.4 292.9c10.2-.2 37.1 6.1 57.6-14.5 2.8-2.8 6.8-6.4 14 .7 6.7 6.7 12.8 30 49.8 20.7 6-1.5-5.4-.9-6.2 5.2-4.3 32.2 5.2 116-46 120-51.5 4.1-71.6-84.7-75.3-117.9-.8-5.6.3-14.1 6.1-14.2z" fill="#fff"/><path d="m2487.9 275v150.1s20.9 3.4 38.4-18.5c17.5-22 23.7-45.2 28-74s4.3-28.8 4.3-28.8 2.3-7.4-5.5-10.4c0 0-.4-1-7.7-.5-7.3.6-23.6 2.5-37-4.1 0 0-8.4-4.6-13.5-9.7.1.1-3.2-5-7-4.1z" fill="#c0b7b7"/><path d="m2509.3 387.5h-40.8c-3.1 0-5.6-2.5-5.6-5.6v-47.3c0-3.1 2.5-5.6 5.6-5.6h40.8c3.1 0 5.6 2.5 5.6 5.6v47.3c0 3.1-2.5 5.6-5.6 5.6z" fill="#38bfcc"/><path d="m2466.5 332.6s-1.3-26.1 21.4-26.1c25.5 0 23.3 26.1 23.3 26.1l-7.9-.2s-1.1-19.9-14.4-19.2c-13.9.7-14.3 19.4-14.3 19.4z" fill="#38bfcc"/><path d="m2489 345.1c-.1 0-.3 0-.4 0-1.2.2-7.3 1.6-6.2 8.9 0 0 .3 1.9 1.7 3 .6.5.9 1.3.7 2.1l-2.4 10.1c0 .2-.1.3-.1.5v1.1c0 1.2.9 2.1 2.1 2.1h4.8 4.8c1.2 0 2.1-.9 2.1-2.1v-1.2c0-.2 0-.4-.1-.6l-2.8-9.6c-.2-.7 0-1.5.5-2.1 1-1.1 2.5-3.1 2.4-5.9-.3-4.1-3.9-6.3-7.1-6.3z" fill="#fff"/><circle cx="3045.3" cy="215.1" fill="#d95730" r="120.5"/><circle cx="3415.2" cy="223.9" fill="#d95730" r="120.5"/><path d="m2977.8 263.5v-100.7c0-5.5 4.5-9.9 9.9-9.9h35.1c2.7 0 5.3 1.1 7.2 3.1l6.5 6.7c1.8 1.9 4.3 3 6.9 3l60.4 1.4c5.4.1 9.7 4.5 9.7 9.9v55c0 4.8-3.5 9-8.3 9.8l-97.3 24.4c-6 1.1-30.1 13.1-30.1-2.7z" fill="#c0b7b7"/><path d="m3045.3 335.6-58.1-60.4 126.3-61.3 44.3 44.3s-25.7 75.1-112.5 77.4z" fill="#b44530"/><circle cx="3831.3" cy="213.9" fill="#d95730" r="120.5"/><path d="m2993.1 191.6-15.3 72c-1.3 6 3.3 11.7 9.5 11.7h113.7c4.6 0 8.5-3.2 9.5-7.7l15.3-74.3c1.2-6-3.3-11.6-9.5-11.6h-110.7c-6.1-.2-11.3 4-12.5 9.9z" fill="#fff"/><path d="m1947.5 343.5 24.3 25.1" fill="#bebec0"/><path d="m3370.9 285.5 58.7 58s77.3-4.6 102.5-90.5l-64.3-73.5z" fill="#b44530"/><path d="m3370.9 148.7h64.1l4.2 27.8 28.6 3.1v105.9h-96.9z" fill="#fff"/><path d="m3435 148.7 32.8 30.9-32.5-.1z" fill="#bebec0"/><path d="m3732.6 252.7 60.3 75.4s96.7 34.7 148.3-64.9l-49.6-31.7-40.3-26.3-53.7 3.3-12.3 34z" fill="#b44530"/><path d="m3728.2 246.8c2.3-11.3 8.8-27.6 27.4-30.4.5-.1.9-.1 1.4-.1h19.1c1.2 0 2.5.3 3.6.7 4.8 2.1 17.1 9.2 22.5 29.3 1.6 5.8-2.8 11.5-8.8 11.5h-56.3c-5.8 0-10.1-5.3-8.9-11z" fill="#fff"/><circle cx="3764.2" cy="197.6" fill="#fff" r="21.2"/><path d="m3827.1 146.9 8.7.2c2.6.1 4.6 2.2 4.5 4.7l-.1 2.5c0 1.8.9 3.4 2.5 4.2 2.5 1.3 6.4 3.4 9.3 5.8 1.3 1 3 1.3 4.5.8l3.8-1.4c2-.7 4.3 0 5.5 1.9l4.3 6.7c1.2 1.9.9 4.3-.7 5.8l-3.2 3c-.9.8-1.4 2-1.4 3.2l-.3 11.7c0 1.2.4 2.4 1.3 3.3l3.2 3.4c1.5 1.5 1.7 3.9.5 5.6l-4.6 7.3c-1.3 2-3.8 2.7-5.9 1.7l-3.4-1.6c-1.3-.6-2.8-.6-4.1 0l-9.6 4.9c-1.4.7-2.4 2.1-2.5 3.7l-.3 2.9c-.2 2.4-2.3 4.3-4.7 4.2l-8.9-.2c-2.3-.1-4.2-1.8-4.5-4.2l-.3-3.1c-.1-1.4-.9-2.6-2-3.4l-9.4-6.3c-1.4-.9-3.2-1-4.6-.3l-2.5 1.3c-2 1-4.5.4-5.8-1.5l-4-5.7c-1.3-1.9-1.1-4.4.6-6l3.7-3.5c.9-.8 1.4-2 1.4-3.2l.3-12c0-1.2-.4-2.4-1.3-3.3l-3.5-3.7c-1.6-1.7-1.7-4.2-.3-6l4.7-5.9c1.5-1.9 4.3-2.3 6.3-.9 2.3 1.6 5.3 1.7 7.6.3l8.2-5c1.3-.8 2.2-2.2 2.2-3.8l.1-3.8c.1-2.4 2.2-4.4 4.7-4.3z" fill="#fff"/><circle cx="3831.2" cy="189.2" fill="#d95730" r="13.1"/><path d="m3861.1 246c2.3-11.3 8.8-27.6 27.4-30.4.5-.1.9-.1 1.4-.1h19.1c1.2 0 2.5.3 3.6.7 4.8 2.1 17.1 9.2 22.5 29.3 1.6 5.8-2.8 11.5-8.8 11.5h-56.3c-5.8 0-10-5.4-8.9-11z" fill="#fff"/><circle cx="3897.1" cy="196.8" fill="#fff" r="21.2"/><circle cx="3479.7" cy="561.9" fill="#d95730" r="120.5"/><path d="m3419.9 625.4 65.5 57s112-7.2 114.8-120.5l-80.6-69.8-51.6 61-19.9 19.9-13.7-11.6-14.6 42.5v21.5z" fill="#b44530"/><path d="m3413.9 553.1h13.2c4.4 0 7.8 3.9 7.3 8.2-1.5 12.3-3 35.8 4.4 53.8 2 4.8-1.4 10.1-6.6 10.2-.1 0-.2 0-.3 0h-12.1c-3.1 0-5.9-2-6.9-4.9-.6-1.6-1.2-3.7-2-6.6-2.7-10.2-4-51.2-4-51.2s2.5-9.5 7-9.5z" fill="#fff"/><path d="m3445.8 557.6c-.7.7-1.3 1.6-1.6 2.6-1.5 4.3-5.4 16.8-3.2 27 2.6 11.8 3.8 22.8 11 29.1.9.8 1.9 1.3 3 1.5 6.8 1.5 34.5 7.1 58.2 5.4 27.2-2 27.2-12 27.2-12v-6.5c0-1.6.6-3.2 1.6-4.5 1.8-2.1 4.4-6.1 4.4-10.9 0-2.8-.4-5-.9-6.5-.8-2.5-.1-5.1 1.8-7 1.4-1.4 2.2-3.3 2.1-5.3-.2-2.6-.8-6.2-3.3-8.4-1.6-1.5-2.5-3.6-2.3-5.8l.7-8.7c.1-1.5-.2-3-1-4.2-1.8-3-6.4-7.6-16.6-7.6h-9.3c-5.5 0-8.9-6.1-5.9-10.8l4-6.3c3.5-5.5 5.5-12 5.4-18.5-.1-4.9-1.2-9.8-5.2-11.6-9-4.2-12 2.2-12 2.2s-8.5 17.5-11.2 20.2c-2.7 2.5-37.3 36.9-46.9 46.6z" fill="#fff"/><circle cx="4155.5" cy="334" fill="#d95730" r="120.5"/><path d="m4074.4 423.1c-3.2-2.8-8.4-69.2-8.4-69.2l38.1-7.5 90.5 101.6s-61.9 26.3-120.2-24.9z" fill="#b44530"/><path d="m4202.2 335.9 42.4-11.8 30.7 22.3s-4 44.5-34.2 71.6l-32.1-34.5z" fill="#b44530"/><path d="m4100.3 309.4c-4.7-3.8-10.6-5.9-16.6-5.7-8.9.2-20.3 3.3-22 18.8-2.8 24.7.6 54.4 25.2 62.8 21.9 7.5 17.3-56.5 16-71.1-.2-2-1.2-3.7-2.6-4.8z" fill="#fff"/><path d="m4206 311.1c4.7-3.8 10.6-5.9 16.6-5.7 8.9.2 20.3 3.3 22 18.8 2.8 24.7-.6 54.4-25.2 62.8-21.9 7.5-17.3-56.5-16-71.1.2-2 1.1-3.7 2.6-4.8z" fill="#fff"/><path d="m4075.2 318.5s4.6-72.8 72.8-72.8 75.9 52.7 79.2 60-6.4 7.3-6.4 7.3-16.5-61.8-69.2-57.2c-52.8 4.6-57 26.3-69.1 62.7z" fill="#fff"/><circle cx="4135.6" cy="409" fill="#fff" r="14.1"/><path d="m4127 409v-3.9s-36.6-4.2-36.6-28.2h-7.9c0 .1 8.3 32.1 44.5 32.1z" fill="#fff"/><circle cx="4435.9" cy="400.6" fill="#d95730" r="120.5"/><path d="m4408.7 518c-5-1-20-59.2-20-59.2l94.9-35.7 64 22.9s-35.2 92.1-138.9 72z" fill="#b44530"/><path d="m4473.5 469h-74.6c-5.6 0-10.2-4.6-10.2-10.2v-86.4c0-5.6 4.6-10.2 10.2-10.2h74.6c5.6 0 10.2 4.6 10.2 10.2v86.4c-.1 5.6-4.7 10.2-10.2 10.2z" fill="#fff"/><path d="m4395.3 368.8s-2.4-47.7 39-47.7c46.6 0 42.5 47.7 42.5 47.7l-14.4-.3s-2.1-36.3-26.4-35c-25.5 1.4-26.2 35.4-26.2 35.4h-14.5z" fill="#fff"/><path d="m4436.4 391.5c-.2 0-.5 0-.7.1-2.3.4-13.3 2.9-11.3 16.2 0 0 .6 3.4 3.1 5.5 1.1.9 1.6 2.4 1.2 3.8l-4.5 18.5c-.1.3-.1.6-.1.9v2c0 2.1 1.7 3.8 3.8 3.8h8.8 8.8c2.1 0 3.8-1.7 3.8-3.8v-2.3c0-.4-.1-.7-.2-1.1l-5.1-17.5c-.4-1.3 0-2.8.9-3.8 1.9-1.9 4.7-5.7 4.3-10.8-.3-7.5-7-11.4-12.8-11.5z" fill="#d95730"/><text fill="#d95730" transform="translate(3435.0161 -397.5316)"/><text fill="#d95730" transform="translate(3283.9473 -5.082)"/><path d="m3802.6-469.9h579.3v334h-579.3z" fill="#3dc0cb"/><path d="m3882.1-335.4 47.3 29 119.3-34.6-28-11.7s-18.7-11.7-27-22.5c0 0-9.3 11.1-19.5 15.1s-92.1 24.7-92.1 24.7z" fill="#fff"/><path d="m3881.4-321.5c11.2 6.7 22.3 13.5 33.5 20.2 3 1.8 6 3.6 9 5.5 1.3.8 3 2.2 4.4 2.7 1.8.5 3.7-.5 5.4-1 29.2-8.5 58.3-17 87.5-25.5 9.7-2.8 19.5-5.7 29.2-8.5 1.8-.5 1.1-3.4-.8-2.9-23.6 6.9-47.3 13.8-70.9 20.7-13.8 4-27.7 8.1-41.5 12.1-2.7.8-5.5 1.8-8.3 2.4-.6.1 1.4.4.8.1s-1.1-.7-1.7-1c-2.4-1.5-4.9-2.9-7.3-4.4-12.6-7.6-25.3-15.3-37.9-22.9-1.6-1.1-3.1 1.5-1.4 2.5z" fill="#fff"/><path d="m3881.4-309c11.1 6.6 22.2 13.2 33.3 19.8 3.1 1.9 6.3 3.7 9.4 5.6 1.6.9 3.3 2.4 5.1 3s3.3-.2 5.1-.8c28.6-8.7 57.2-17.4 85.8-26.1 9.7-2.9 19.4-5.9 29-8.8 1.8-.6 1.1-3.4-.8-2.9-23.6 7.2-47.1 14.3-70.7 21.5-13.4 4.1-26.9 8.2-40.3 12.3-2.4.7-4.9 1.8-7.4 2.3.5-.1 1.4.5.6-.1-.6-.4-1.3-.8-2-1.2-2.6-1.5-5.2-3.1-7.8-4.6-12.6-7.5-25.2-15-37.9-22.5-1.6-1.1-3.1 1.5-1.4 2.5z" fill="#fff"/><path d="m3881.4-296.3c11.1 6.5 22.3 13.1 33.4 19.6 3.1 1.8 6.2 3.6 9.2 5.4 1.5.9 3.1 2.3 4.8 2.8 1.8.6 3.4-.2 5.3-.8 28.6-8.6 57.2-17.2 85.8-25.8 9.8-2.9 19.5-5.9 29.3-8.8 1.8-.6 1.1-3.4-.8-2.9-23.6 7.1-47.2 14.2-70.8 21.3-13.5 4.1-26.9 8.1-40.4 12.2-2.5.7-5.1 1.8-7.6 2.3.1 0 1.5.5.7-.1-.6-.4-1.4-.8-2-1.2-2.5-1.4-4.9-2.9-7.4-4.3-12.6-7.4-25.3-14.8-37.9-22.3-1.8-.9-3.3 1.6-1.6 2.6z" fill="#fff"/><path d="m3881.4-284.4c11.1 6.6 22.2 13.1 33.2 19.7 3.1 1.8 6.1 3.6 9.2 5.5 1.4.8 3.1 2.3 4.7 2.8 1.8.5 3.5-.4 5.3-.9 28.8-8.6 57.6-17.3 86.3-25.9 9.7-2.9 19.3-5.8 29-8.7 1.8-.6 1.1-3.4-.8-2.9-23.5 7.1-47.1 14.1-70.6 21.2-13.6 4.1-27.2 8.1-40.7 12.2-2.6.8-5.2 1.8-7.8 2.4-.3.1 1.5.5.7 0-.6-.4-1.2-.7-1.8-1-2.5-1.5-5-3-7.5-4.4-12.6-7.5-25.2-14.9-37.7-22.4-1.7-1.1-3.2 1.5-1.5 2.4z" fill="#fff"/><path d="m4151.5-285.1 27 99.2c1.1 3.9 5.1 6.3 9.1 5.2l135-36.7c3.9-1.1 6.3-5.1 5.2-9.1l-23.1-84.9c-1.1-3.9-5.1-6.3-9.1-5.2l-80.2 21.8c-3.9 1.1-8-1.3-9.1-5.2-1.1-3.9-5.1-6.3-9.1-5.2l-40.5 11c-4 1.1-6.3 5.2-5.2 9.1z" fill="#b44530"/><path d="m4068-410.7 9.4 50.2s-11.2 2.8-12.9 10.8l-23-26.3s-9.6-3.7-7.9-12 29.3-23.7 34.4-22.7z" fill="#fff"/><path d="m4035-381 6.5 5 40.2 43.2-21.2-4.4z" fill="#bebec0"/><path d="m3922.3-413.6-5.8 32.2s11.9-24.7 19-24.7z" fill="#ddd"/><path d="m3981-390.9-25.1 46.3c-54.2 5.7-39.4-34.1-39.4-36.9s10.3-17.5 10.3-17.5.5 13.2 13.2 15.5 41-7.4 41-7.4z" fill="#fff"/><path d="m4247.6-364.5-34 16.5s-3.9-27.2-12.2-32l43 7.3s5.1 1.8 3.2 8.2z" fill="#bebec0"/><path d="m4222.9-345.3 15.1-14.5-21.3 10.3z" fill="#fff"/><path d="m4212.9-352s-28.6-18.9-32-18.8c0 0 19.7-18.5 26.6-4.1 7.7 16 5.6 17.9 5.4 22.9z" fill="#fff"/><path d="m4225.4-340.4s-10.3 5.6-10.9 16.3l9.2-1.5s22.5 25.4 32.6 43.3c10 17.9 13.2 23.6 13.2 23.6s-2.1-40.1 2.3-48.9c-.1-.2-39.8-17-46.4-32.8z" fill="#fff"/><path d="m4216.7-322.2 52.2 61.7s-28.2-52.6-45.3-65.2c0 0-6.4 0-9.2 1.5z" fill="#c6c7c8"/><path d="m3875.9-441.2-7.3 19.2s16 17.5 31 8.9c14.9-8.7 10.2-25.9 10.2-25.9l-13-9.9s-6.6 24.8-20.9 7.7z" fill="#fff"/><path d="m4185.2-250.1s12.8 57.7-6.8 65.1c0 0 1.7 6.4 9.1 5.2s146.4-40.5 146.4-40.5 5-.8 3.4-10.9c-1.7-10-19.1-74.2-19.1-74.2l-138.2 37.9z" fill="#d95730"/><path d="m4110.2-363.8-15.1 21.7s17.1-14.1 22.3-11.7z" fill="#ddd"/><path d="m4145.6-327.4-34 25.6c-41.7-14.1-17.5-38.3-16.5-40.4.9-2 13.5-9.4 13.5-9.4s-4.1 9.9 4.5 15.8c8.6 6 32.5 8.4 32.5 8.4z" fill="#fff"/><path d="m4160.8-355.8-28-25.3s23.7-13.8 25.1-23.3l9.3 42.6s.2 5.4-6.4 6z" fill="#bebec0"/><path d="m4133.7-371.5 19.2 8.6-17.6-15.9z" fill="#fff"/><path d="m4136.3-383.2s6.8-33.6 5.5-36.7c0 0 24.5 11.3 13.8 23.1-12.1 13.1-14.7 11.8-19.3 13.6z" fill="#fff"/><path d="m3802.6-820.6h579.3v334h-579.3z" fill="#db7458"/><path d="m4234-579.4h-301.4c-12.1 0-22-9.9-22-22v-160.1c0-12.1 9.9-22 22-22h301.4c12.1 0 22 9.9 22 22v160.1c0 12-9.9 22-22 22z" fill="#3dc0cb"/><path d="m4215.7-597h-262.1c-13.8 0-25-11.3-25-25v-118.3c0-13.8 11.3-25 25-25h262.1c13.8 0 25 11.3 25 25v118.3c.1 13.8-11.2 25-25 25z" fill="#dfdede"/><path d="m4290-542.5h-104.5c-9.8 0-17.9-8-17.9-17.9v-154.9c0-9.8 8-17.9 17.9-17.9h104.5c9.8 0 17.9 8 17.9 17.9v154.9c0 9.8-8.1 17.9-17.9 17.9z" fill="#3dc0cb"/><path d="m4116.9-546.3h-64.8c-1.2 0-2.1-.9-2.1-2.1v-34.6c0-1.2.9-2.1 2.1-2.1h64.8c1.2 0 2.1.9 2.1 2.1v34.6c0 1.1-.9 2.1-2.1 2.1z" fill="#3dc0cb"/><path d="m4277.5-562.8h-77.5c-7.6 0-13.9-6.3-13.9-13.9v-125.9c0-7.6 6.3-13.9 13.9-13.9h77.5c7.6 0 13.9 6.3 13.9 13.9v125.9c-.1 7.7-6.3 13.9-13.9 13.9z" fill="#dfdede"/><path d="m4155-542.5h-141c-1.1 0-2-.9-2-2v-3.6c0-1.1.9-2 2-2h141c1.1 0 2 .9 2 2v3.6c0 1.1-.9 2-2 2z" fill="#3dc0cb"/><path d="m4012.3-728.4-.9 81.2c0 3.2 2.6 5.9 5.8 5.9l110.5 1.2c3.2 0 5.9-2.6 5.9-5.8l.7-69.5c0-3.2-2.6-5.9-5.8-5.9l-65.7-.7c-3.2 0-5.8-2.7-5.8-5.9 0-3.2-2.6-5.9-5.8-5.9l-33.2-.4c-3 0-5.7 2.6-5.7 5.8z" fill="#b44530"/><path d="m4030.6-694.2s-2.7 46.6-19.2 48c0 0-.1 5.2 5.8 5.9s120 .8 120 .8 4 .5 4.9-7.5 1.4-60.5 1.4-60.5l-113.1-1.1z" fill="#d95730"/><path d="m4212.3-681.4h40.8l2.7 17.7 18.2 1.9v67.5h-61.7z" fill="#fff"/><path d="m4253.1-681.4 20.9 19.6h-20.7z" fill="#bebec0"/><circle cx="4239.3" cy="-697" fill="#fff" r="8.7"/><path d="m4089.7-713.5c10.6-14.2 28.7-27.2 46.3-32.9 30-9.8 66.1.5 87.2 23.8 5.1 5.7 12.3 14.5 12.5 22.7.1 2.6 4.1 2.6 4 0-.2-7.6-5.5-15.4-10-21.1-8.8-11.4-20.8-20-34-25.5-16.3-6.8-34.7-9.7-52.1-6.1-14.6 3-28.1 10.2-39.7 19.5-6.5 5.2-12.7 11-17.7 17.6-1.5 2 2 4 3.5 2z" fill="#fff"/><path d="m4050-579.4h69v13.7h-69z" fill="#369495"/><path d="m3938-513h-48.2c-10.7 0-19.5-8.7-19.5-19.5v-129.1c0-10.7 8.7-19.5 19.5-19.5h48.2c10.7 0 19.5 8.7 19.5 19.5v129.1c0 10.8-8.7 19.5-19.5 19.5z" fill="#3dc0cb"/><path d="m3939.2-542.5h-50.4c-5.4 0-9.8-4.4-9.8-9.8v-94.7c0-5.4 4.4-9.8 9.8-9.8h50.4c5.4 0 9.8 4.4 9.8 9.8v94.7c-.1 5.4-4.5 9.8-9.8 9.8z" fill="#dfdede"/><circle cx="3913.9" cy="-529.2" fill="#369495" r="9.2"/><path d="m3897.9-669.6h27.8v2.5h-27.8z" fill="#369495"/><path d="m3893.3-631.8h28.1l1.8 12.2 12.6 1.4v46.4h-42.5z" fill="#fff"/><path d="m3921.4-631.8 14.4 13.6h-14.3z" fill="#bebec0"/><circle cx="3915.6" cy="-645.3" fill="#fff" r="5.1"/><path d="m4046.2-713c-15.5-15.3-39.7-23.2-61.2-21.9-17.1 1.1-36.1 7.3-48.2 19.8-10.1 10.4-16 24.4-19.4 38.4-1.5 6.4-2.6 12.9-3 19.4-.2 3.1-.7 7.1.3 10.2.5 1.4 2.8.8 2.3-.6-.8-2.4-.5-5.4-.3-7.9.2-5.3 1-10.5 2-15.7 2.7-13.5 7.5-27.1 16.2-37.9 11.1-14 29.4-21.2 46.8-23.1 15-1.6 30.2 1.3 43.8 7.9 6.8 3.4 13.8 7.6 19.2 12.9.9 1.3 2.6-.4 1.5-1.5z" fill="#fff"/><path d="m3813.6-1171.4h579.3v334h-579.3z" fill="#58595b"/><path d="m3980.7-999.9 55-67.5s6.2 10.2 20 7 49.9 3.5 49.9 3.5l97.1 83.5 5 13s11.7 17 4 24.7-27 0-27 0 14.8 13.5 1.7 26.7c-13.2 13.2-33.7-7.3-33.7-7.3s16.5 15.2 5.7 26-32.7-8-32.7-8 6.6 11.3-2.3 20.2-28.7-5.9-28.7-5.9l-20.3-20.3-80.3-68.2c0-.1-1-15-13.4-27.4z" fill="#e6e7e8"/><path d="m4025.3-1034.4 30.4-15.5 13.8-13.8s27.2-18.8 55.2-11.2c0 0 18 5 21.5 8.5 0 0 24.4.8 35.5-10.3l61 80.3s-23.3 14-35 36c0 0-33-22-51-35s-41.7-40.3-41.7-40.3-18-1.7-36 9c-16.4 9.7-10.9 13.6-36 11.7-5.6-.4-11.1-1.5-16.4-3.2-.5-.2-.8-.3-.9-.3-8.1-4.7-8.6-11.6-.4-15.9z" fill="#8f8d8f"/><path d="m4086.5-892.3 3.2 3.2s25.5-20.3 19.5-32.8c-4.8-10-8.9-10.9-13.5-10.8-1.8 0-3.2-1.5-3-3.3.4-3.9.3-10.3-3.8-14.4-5.2-5.2-8.7-6.4-14.7-4.8-1.5.4-3-.9-2.6-2.5.8-3.4 1.3-8.3-1.2-12.2-3.6-5.5-9-9.8-17.8-8-2.3.5-4.4-1.3-4.3-3.6.1-2.8-.3-6.2-2.4-8.2-4.1-4.1-11.3-9.3-24.1-6.1-8.9 2.3-28.6 18.8-28.6 18.8l.7 4.4 27.9 5.5z" fill="#bcbec0"/><path d="m3986.6-957.7c.5-5.7 3.3-11 7.5-14.9 8.5-7.8 27.1-23.3 38.1-20.3 14.5 4 14.8 19.2 9.5 24.5 0 0 15-16 25.5 0 0 0 7 10.5-4 21.5 0 0 16.2-12.5 23.5-1.8s-1.5 19.5-1.5 19.5 12.3-5.2 18.5 4.5c4.4 6.9 3.3 13-5 21.3s-24.3 21.3-24.3 21.3-10 8.7-18.7 0 2.7-20 2.7-20-14.7 15-26.7 7.7-2.3-23-2.3-23-19.3 11.7-25.7-2.7c-6.3-14.3 8.7-23.3 8.7-23.3s-15.5 3.2-22.7-4c-2.8-2.8-3.4-6.7-3.1-10.3z" fill="#8f8d8f"/><path d="m3911.8-1026.6 56.2 47.3 81.3-99.3-72.7-58.7s-40.7 37.3-54.7 79c-13.9 41.7-10.1 31.7-10.1 31.7z" fill="#db7458"/><path d="m4174.9-1080.2 74.7 100 61.8-47.3s-14.9-59.2-64.4-108.8z" fill="#3dc0cb"/><circle cx="4217.2" cy="-1084.2" fill="#fff" r="7.1"/><circle cx="4239.9" cy="-1102.1" fill="#fff" r="7.1"/><path d="m4115-1035.8 9.3 1.6s15.9 25.9 86.1 69l-2.8 4.7c.1.1-62.2-33.6-92.6-75.3z" fill="#777677"/><g clip-path="url(#a)" fill="none" stroke="#34ace0" stroke-miterlimit="10" stroke-width=".5"><path clip-path="url(#b)" d="m-3471.1-7170.1h1920v24h-1920z"/><path clip-path="url(#b)" d="m-3471.1-7146.1h1920v24h-1920z"/><path clip-path="url(#b)" d="m-3471.1-7122.1h1920v24h-1920z"/><path clip-path="url(#b)" d="m-3471.1-7098.1h1920v24h-1920z"/><path clip-path="url(#b)" d="m-3471.1-7074.1h1920v24h-1920z"/><path clip-path="url(#b)" d="m-3471.1-7050.1h1920v24h-1920z"/><path clip-path="url(#b)" d="m-3471.1-7026.1h1920v24h-1920z"/><path clip-path="url(#b)" d="m-3471.1-7002.1h1920v24h-1920z"/><path clip-path="url(#b)" d="m-3471.1-6978.1h1920v24h-1920z"/><path clip-path="url(#b)" d="m-3471.1-6954.1h1920v24h-1920z"/><path clip-path="url(#b)" d="m-3471.1-6930.1h1920v24h-1920z"/><path clip-path="url(#b)" d="m-3471.1-6906.1h1920v24h-1920z"/><path clip-path="url(#b)" d="m-3471.1-6882.1h1920v24h-1920z"/><path clip-path="url(#b)" d="m-3471.1-6858.1h1920v24h-1920z"/><path clip-path="url(#b)" d="m-3471.1-6834.1h1920v24h-1920z"/><path clip-path="url(#b)" d="m-3471.1-6810.1h1920v24h-1920z"/><path clip-path="url(#b)" d="m-3471.1-6786.1h1920v24h-1920z"/><path clip-path="url(#b)" d="m-3471.1-6762.1h1920v24h-1920z"/><path clip-path="url(#b)" d="m-3471.1-6738.1h1920v24h-1920z"/><path clip-path="url(#b)" d="m-3471.1-6714.1h1920v24h-1920z"/><path clip-path="url(#b)" d="m-3471.1-6690.1h1920v24h-1920z"/><path clip-path="url(#b)" d="m-3471.1-6666.1h1920v24h-1920z"/><path clip-path="url(#b)" d="m-3471.1-6642.1h1920v24h-1920z"/><path clip-path="url(#b)" d="m-3471.1-6618.1h1920v24h-1920z"/><path clip-path="url(#b)" d="m-3471.1-6594.1h1920v24h-1920z"/><path clip-path="url(#b)" d="m-3471.1-6570.1h1920v24h-1920z"/><path clip-path="url(#b)" d="m-3471.1-6546.1h1920v24h-1920z"/><path clip-path="url(#b)" d="m-3471.1-6522.1h1920v24h-1920z"/><path clip-path="url(#b)" d="m-3471.1-6498.1h1920v24h-1920z"/><path clip-path="url(#b)" d="m-3471.1-6474.1h1920v24h-1920z"/><path clip-path="url(#b)" d="m-3471.1-6450.1h1920v24h-1920z"/><path clip-path="url(#b)" d="m-3471.1-6426.1h1920v24h-1920z"/><path clip-path="url(#b)" d="m-3471.1-6402.1h1920v24h-1920z"/><path clip-path="url(#b)" d="m-3471.1-6378.1h1920v24h-1920z"/><path clip-path="url(#b)" d="m-3471.1-6354.1h1920v24h-1920z"/><path clip-path="url(#b)" d="m-3471.1-6330.1h1920v24h-1920z"/><path clip-path="url(#b)" d="m-3471.1-6306.1h1920v24h-1920z"/><path clip-path="url(#b)" d="m-3471.1-6282.1h1920v24h-1920z"/><path clip-path="url(#b)" d="m-3471.1-6258.1h1920v24h-1920z"/><path clip-path="url(#b)" d="m-3471.1-6234.1h1920v24h-1920z"/><path clip-path="url(#b)" d="m-3471.1-6210.1h1920v24h-1920z"/><path clip-path="url(#b)" d="m-3471.1-6186.1h1920v24h-1920z"/><path clip-path="url(#b)" d="m-3471.1-6162.1h1920v24h-1920z"/><path clip-path="url(#b)" d="m-3471.1-6138.1h1920v24h-1920z"/><path clip-path="url(#b)" d="m-3471.1-6114.1h1920v24h-1920z"/><path clip-path="url(#b)" d="m-3471.1-6090.1h1920v24h-1920z"/><path clip-path="url(#b)" d="m-3471.1-6066.1h1920v24h-1920z"/><path clip-path="url(#b)" d="m-3471.1-6042.1h1920v24h-1920z"/><path clip-path="url(#b)" d="m-3471.1-6018.1h1920v24h-1920z"/><path clip-path="url(#b)" d="m-3471.1-5994.1h1920v24h-1920z"/><path clip-path="url(#b)" d="m-3471.1-5970.1h1920v24h-1920z"/><path clip-path="url(#b)" d="m-3471.1-5946.1h1920v24h-1920z"/><path clip-path="url(#b)" d="m-3471.1-5922.1h1920v24h-1920z"/><path clip-path="url(#b)" d="m-3471.1-5898.1h1920v24h-1920z"/><path clip-path="url(#b)" d="m-3471.1-5874.1h1920v24h-1920z"/><path clip-path="url(#b)" d="m-3471.1-5850.1h1920v24h-1920z"/><path clip-path="url(#b)" d="m-3471.1-5826.1h1920v24h-1920z"/><path clip-path="url(#b)" d="m-3471.1-5802.1h1920v24h-1920z"/><path clip-path="url(#b)" d="m-3471.1-5778.1h1920v24h-1920z"/><path clip-path="url(#b)" d="m-3471.1-5754.1h1920v24h-1920z"/><path clip-path="url(#b)" d="m-3471.1-5730.1h1920v24h-1920z"/><path clip-path="url(#b)" d="m-3471.1-5706.1h1920v24h-1920z"/><path clip-path="url(#b)" d="m-3471.1-5682.1h1920v24h-1920z"/><path clip-path="url(#b)" d="m-3471.1-5658.1h1920v24h-1920z"/><path clip-path="url(#b)" d="m-3471.1-5634.1h1920v24h-1920z"/><path clip-path="url(#b)" d="m-3471.1-5610.1h1920v24h-1920z"/><path clip-path="url(#b)" d="m-3471.1-5586.1h1920v24h-1920z"/><path clip-path="url(#b)" d="m-3471.1-5562.1h1920v24h-1920z"/><path clip-path="url(#b)" d="m-3471.1-5538.1h1920v24h-1920z"/><path clip-path="url(#b)" d="m-3471.1-5514.1h1920v24h-1920z"/><path clip-path="url(#b)" d="m-3471.1-5490.1h1920v24h-1920z"/><path clip-path="url(#b)" d="m-3471.1-5466.1h1920v24h-1920z"/><path clip-path="url(#b)" d="m-3471.1-5442.1h1920v24h-1920z"/><path clip-path="url(#b)" d="m-3471.1-5418.1h1920v24h-1920z"/><path clip-path="url(#b)" d="m-3471.1-5394.1h1920v24h-1920z"/><path clip-path="url(#b)" d="m-3471.1-5370.1h1920v24h-1920z"/><path clip-path="url(#b)" d="m-3471.1-5346.1h1920v24h-1920z"/><path clip-path="url(#b)" d="m-3471.1-5322.1h1920v24h-1920z"/><path clip-path="url(#b)" d="m-3471.1-5298.1h1920v24h-1920z"/><path clip-path="url(#b)" d="m-3471.1-5274.1h1920v24h-1920z"/><path clip-path="url(#b)" d="m-3471.1-5250.1h1920v24h-1920z"/><path clip-path="url(#b)" d="m-3471.1-5226.1h1920v24h-1920z"/><path clip-path="url(#b)" d="m-3471.1-5202.1h1920v24h-1920z"/><path clip-path="url(#b)" d="m-3471.1-5178.1h1920v24h-1920z"/><path clip-path="url(#b)" d="m-3471.1-5154.1h1920v24h-1920z"/><path clip-path="url(#b)" d="m-3471.1-5130.1h1920v24h-1920z"/><path clip-path="url(#b)" d="m-3471.1-5106.1h1920v24h-1920z"/><path clip-path="url(#b)" d="m-3471.1-5082.1h1920v24h-1920z"/><path clip-path="url(#b)" d="m-3471.1-5058.1h1920v24h-1920z"/><path clip-path="url(#b)" d="m-3471.1-5034.1h1920v24h-1920z"/><path clip-path="url(#b)" d="m-3471.1-5010.1h1920v24h-1920z"/><path clip-path="url(#b)" d="m-3471.1-4986.1h1920v24h-1920z"/><path clip-path="url(#b)" d="m-3471.1-4962.1h1920v24h-1920z"/><path clip-path="url(#b)" d="m-3471.1-4938.1h1920v24h-1920z"/><path clip-path="url(#b)" d="m-3471.1-4914.1h1920v24h-1920z"/><path clip-path="url(#b)" d="m-3471.1-4890.1h1920v24h-1920z"/><path clip-path="url(#b)" d="m-3471.1-4866.1h1920v24h-1920z"/><path clip-path="url(#b)" d="m-3471.1-4842.1h1920v24h-1920z"/><path clip-path="url(#b)" d="m-3471.1-4818.1h1920v24h-1920z"/><path clip-path="url(#b)" d="m-3471.1-4794.1h1920v24h-1920z"/><path clip-path="url(#b)" d="m-3471.1-4770.1h1920v24h-1920z"/><path clip-path="url(#b)" d="m-3471.1-4746.1h1920v24h-1920z"/><path clip-path="url(#b)" d="m-3471.1-4722.1h1920v24h-1920z"/><path clip-path="url(#b)" d="m-3471.1-4698.1h1920v24h-1920z"/><path clip-path="url(#b)" d="m-3471.1-4674.1h1920v24h-1920z"/><path clip-path="url(#b)" d="m-3471.1-4650.1h1920v24h-1920z"/><path clip-path="url(#b)" d="m-3471.1-4626.1h1920v24h-1920z"/><path clip-path="url(#b)" d="m-3471.1-4602.1h1920v24h-1920z"/><path clip-path="url(#b)" d="m-3471.1-4578.1h1920v24h-1920z"/><path clip-path="url(#b)" d="m-3471.1-4554.1h1920v24h-1920z"/><path clip-path="url(#b)" d="m-3471.1-4530.1h1920v24h-1920z"/><path clip-path="url(#b)" d="m-3471.1-4506.1h1920v24h-1920z"/><path clip-path="url(#b)" d="m-3471.1-4482.1h1920v24h-1920z"/><path clip-path="url(#b)" d="m-3471.1-4458.1h1920v24h-1920z"/><path clip-path="url(#b)" d="m-3471.1-4434.1h1920v24h-1920z"/><path clip-path="url(#b)" d="m-3471.1-4410.1h1920v24h-1920z"/><path clip-path="url(#b)" d="m-3471.1-4386.1h1920v24h-1920z"/><path clip-path="url(#b)" d="m-3471.1-4362.1h1920v24h-1920z"/><path clip-path="url(#b)" d="m-3471.1-4338.1h1920v24h-1920z"/><path clip-path="url(#b)" d="m-3471.1-4314.1h1920v24h-1920z"/><path clip-path="url(#b)" d="m-3471.1-4290.1h1920v24h-1920z"/><path clip-path="url(#b)" d="m-3471.1-4266.1h1920v24h-1920z"/><path clip-path="url(#b)" d="m-3471.1-4242.1h1920v24h-1920z"/><path clip-path="url(#b)" d="m-3471.1-4218.1h1920v24h-1920z"/><path clip-path="url(#b)" d="m-3471.1-4194.1h1920v24h-1920z"/><path clip-path="url(#b)" d="m-3471.1-4170.1h1920v24h-1920z"/><path clip-path="url(#b)" d="m-3471.1-4146.1h1920v24h-1920z"/><path clip-path="url(#b)" d="m-3471.1-4122.1h1920v24h-1920z"/><path clip-path="url(#b)" d="m-3471.1-4098.1h1920v24h-1920z"/><path clip-path="url(#b)" d="m-3471.1-4074.1h1920v24h-1920z"/><path clip-path="url(#b)" d="m-3471.1-4050.1h1920v24h-1920z"/><path clip-path="url(#b)" d="m-3471.1-4026.1h1920v24h-1920z"/><path clip-path="url(#b)" d="m-3471.1-4002.1h1920v24h-1920z"/><path clip-path="url(#b)" d="m-3471.1-3978.1h1920v24h-1920z"/><path clip-path="url(#b)" d="m-3471.1-3954.1h1920v24h-1920z"/><path clip-path="url(#b)" d="m-3471.1-3930.1h1920v24h-1920z"/><path clip-path="url(#b)" d="m-3471.1-3906.1h1920v24h-1920z"/><path clip-path="url(#b)" d="m-3471.1-3882.1h1920v24h-1920z"/><path clip-path="url(#b)" d="m-3471.1-3858.1h1920v24h-1920z"/><path clip-path="url(#b)" d="m-3471.1-3834.1h1920v24h-1920z"/><path clip-path="url(#b)" d="m-3471.1-3810.1h1920v24h-1920z"/><path clip-path="url(#b)" d="m-3471.1-3786.1h1920v24h-1920z"/><path clip-path="url(#b)" d="m-3471.1-3762.1h1920v24h-1920z"/><path clip-path="url(#b)" d="m-3471.1-3738.1h1920v24h-1920z"/><path clip-path="url(#b)" d="m-3471.1-3714.1h1920v24h-1920z"/><path clip-path="url(#b)" d="m-3471.1-3690.1h1920v24h-1920z"/><path clip-path="url(#b)" d="m-3471.1-3666.1h1920v24h-1920z"/><path clip-path="url(#b)" d="m-3471.1-3642.1h1920v24h-1920z"/><path clip-path="url(#b)" d="m-3471.1-3618.1h1920v24h-1920z"/><path clip-path="url(#b)" d="m-3471.1-3594.1h1920v24h-1920z"/><path clip-path="url(#b)" d="m-3471.1-3570.1h1920v24h-1920z"/><path clip-path="url(#b)" d="m-3471.1-3546.1h1920v24h-1920z"/><path clip-path="url(#b)" d="m-3471.1-3522.1h1920v24h-1920z"/><path clip-path="url(#b)" d="m-3471.1-3498.1h1920v24h-1920z"/><path clip-path="url(#b)" d="m-3471.1-3474.1h1920v24h-1920z"/><path clip-path="url(#b)" d="m-3471.1-3450.1h1920v24h-1920z"/><path clip-path="url(#b)" d="m-3471.1-3426.1h1920v24h-1920z"/><path clip-path="url(#b)" d="m-3471.1-3402.1h1920v24h-1920z"/><path clip-path="url(#b)" d="m-3471.1-3378.1h1920v24h-1920z"/><path clip-path="url(#b)" d="m-3471.1-3354.1h1920v24h-1920z"/><path clip-path="url(#b)" d="m-3471.1-3330.1h1920v24h-1920z"/><path clip-path="url(#b)" d="m-3471.1-3306.1h1920v24h-1920z"/><path clip-path="url(#b)" d="m-3471.1-3282.1h1920v24h-1920z"/><path clip-path="url(#b)" d="m-3471.1-3258.1h1920v24h-1920z"/><path clip-path="url(#b)" d="m-3471.1-3234.1h1920v24h-1920z"/><path clip-path="url(#b)" d="m-3471.1-3210.1h1920v24h-1920z"/><path clip-path="url(#b)" d="m-3471.1-3186.1h1920v24h-1920z"/><path clip-path="url(#b)" d="m-3471.1-3162.1h1920v24h-1920z"/><path clip-path="url(#b)" d="m-3471.1-3138.1h1920v24h-1920z"/><path clip-path="url(#b)" d="m-3471.1-3114.1h1920v24h-1920z"/><path clip-path="url(#b)" d="m-3471.1-3090.1h1920v24h-1920z"/><path clip-path="url(#b)" d="m-3471.1-3066.1h1920v24h-1920z"/><path clip-path="url(#b)" d="m-3471.1-3042.1h1920v24h-1920z"/><path clip-path="url(#b)" d="m-3471.1-3018.1h1920v24h-1920z"/><path clip-path="url(#b)" d="m-3471.1-2994.1h1920v24h-1920z"/><path clip-path="url(#b)" d="m-3471.1-2970.1h1920v24h-1920z"/><path clip-path="url(#b)" d="m-3471.1-2946.1h1920v24h-1920z"/><path clip-path="url(#b)" d="m-3471.1-2922.1h1920v24h-1920z"/><path clip-path="url(#b)" d="m-3471.1-2898.1h1920v24h-1920z"/><path clip-path="url(#b)" d="m-3471.1-2874.1h1920v24h-1920z"/><path clip-path="url(#b)" d="m-3471.1-2850.1h1920v24h-1920z"/><path clip-path="url(#b)" d="m-3471.1-2826.1h1920v24h-1920z"/><path clip-path="url(#b)" d="m-3471.1-2802.1h1920v24h-1920z"/><path clip-path="url(#b)" d="m-3471.1-2778.1h1920v24h-1920z"/><path clip-path="url(#b)" d="m-3471.1-2754.1h1920v24h-1920z"/><path clip-path="url(#b)" d="m-3471.1-2730.1h1920v24h-1920z"/><path clip-path="url(#b)" d="m-3471.1-2706.1h1920v24h-1920z"/><path clip-path="url(#b)" d="m-3471.1-2682.1h1920v24h-1920z"/><path clip-path="url(#b)" d="m-3471.1-2658.1h1920v24h-1920z"/><path clip-path="url(#b)" d="m-3471.1-2634.1h1920v24h-1920z"/><path clip-path="url(#b)" d="m-3471.1-2610.1h1920v24h-1920z"/><path clip-path="url(#b)" d="m-3471.1-2586.1h1920v24h-1920z"/><path clip-path="url(#b)" d="m-3471.1-2562.1h1920v24h-1920z"/><path clip-path="url(#b)" d="m-3471.1-2538.1h1920v24h-1920z"/><path clip-path="url(#b)" d="m-3471.1-2514.1h1920v24h-1920z"/><path clip-path="url(#b)" d="m-3471.1-2490.1h1920v24h-1920z"/><path clip-path="url(#b)" d="m-3471.1-2466.1h1920v24h-1920z"/><path clip-path="url(#b)" d="m-3471.1-2442.1h1920v24h-1920z"/><path clip-path="url(#b)" d="m-3471.1-2418.1h1920v24h-1920z"/><path clip-path="url(#b)" d="m-3471.1-2394.1h1920v24h-1920z"/><path clip-path="url(#b)" d="m-3471.1-2370.1h1920v24h-1920z"/><path clip-path="url(#b)" d="m-3471.1-2346.1h1920v24h-1920z"/><path clip-path="url(#b)" d="m-3471.1-2322.1h1920v24h-1920z"/><path clip-path="url(#b)" d="m-3471.1-2298.1h1920v24h-1920z"/><path clip-path="url(#b)" d="m-3471.1-2274.1h1920v24h-1920z"/><path clip-path="url(#b)" d="m-3471.1-2250.1h1920v24h-1920z"/><path clip-path="url(#b)" d="m-3471.1-2226.1h1920v24h-1920z"/><path clip-path="url(#b)" d="m-3471.1-2202.1h1920v24h-1920z"/><path clip-path="url(#b)" d="m-3471.1-2178.1h1920v24h-1920z"/><path clip-path="url(#b)" d="m-3471.1-2154.1h1920v24h-1920z"/><path clip-path="url(#b)" d="m-3471.1-2130.1h1920v24h-1920z"/><path clip-path="url(#b)" d="m-3471.1-2106.1h1920v24h-1920z"/><path clip-path="url(#b)" d="m-3471.1-2082.1h1920v24h-1920z"/><path clip-path="url(#b)" d="m-3471.1-2058.1h1920v24h-1920z"/><path clip-path="url(#b)" d="m-3471.1-2034.1h1920v24h-1920z"/><path clip-path="url(#b)" d="m-3471.1-2010.1h1920v24h-1920z"/><path clip-path="url(#b)" d="m-3471.1-1986.1h1920v24h-1920z"/><path clip-path="url(#b)" d="m-3471.1-1962.1h1920v24h-1920z"/><path clip-path="url(#b)" d="m-3471.1-1938.1h1920v24h-1920z"/><path clip-path="url(#b)" d="m-3471.1-1914.1h1920v24h-1920z"/><path clip-path="url(#b)" d="m-3471.1-1890.1h1920v24h-1920z"/><path clip-path="url(#b)" d="m-3471.1-1866.1h1920v24h-1920z"/><path clip-path="url(#b)" d="m-3471.1-1842.1h1920v24h-1920z"/><path clip-path="url(#b)" d="m-3471.1-1818.1h1920v24h-1920z"/><path clip-path="url(#b)" d="m-3471.1-1794.1h1920v24h-1920z"/><path clip-path="url(#b)" d="m-3471.1-1770.1h1920v24h-1920z"/><path clip-path="url(#b)" d="m-3471.1-1746.1h1920v24h-1920z"/><path clip-path="url(#b)" d="m-3471.1-1722.1h1920v24h-1920z"/><path clip-path="url(#b)" d="m-3471.1-1698.1h1920v24h-1920z"/><path clip-path="url(#b)" d="m-3471.1-1674.1h1920v24h-1920z"/><path clip-path="url(#b)" d="m-3471.1-1650.1h1920v24h-1920z"/><path clip-path="url(#b)" d="m-3471.1-1626.1h1920v24h-1920z"/><path clip-path="url(#b)" d="m-3471.1-1602.1h1920v24h-1920z"/><path clip-path="url(#b)" d="m-3471.1-1578.1h1920v24h-1920z"/><path clip-path="url(#b)" d="m-3471.1-1554.1h1920v24h-1920z"/><path clip-path="url(#b)" d="m-3471.1-1530.1h1920v24h-1920z"/><path clip-path="url(#b)" d="m-3471.1-1506.1h1920v24h-1920z"/><path clip-path="url(#b)" d="m-3471.1-1482.1h1920v24h-1920z"/><path clip-path="url(#b)" d="m-3471.1-1458.1h1920v24h-1920z"/><path clip-path="url(#b)" d="m-3471.1-1434.1h1920v24h-1920z"/><path clip-path="url(#b)" d="m-3471.1-1410.1h1920v24h-1920z"/><path clip-path="url(#b)" d="m-3471.1-1386.1h1920v24h-1920z"/><path clip-path="url(#b)" d="m-3471.1-1362.1h1920v24h-1920z"/><path clip-path="url(#b)" d="m-3471.1-1338.1h1920v24h-1920z"/><path clip-path="url(#b)" d="m-3471.1-1314.1h1920v24h-1920z"/><path clip-path="url(#b)" d="m-3471.1-1290.1h1920v24h-1920z"/><path clip-path="url(#b)" d="m-3471.1-1266.1h1920v24h-1920z"/><path clip-path="url(#b)" d="m-3471.1-1242.1h1920v24h-1920z"/><path clip-path="url(#b)" d="m-3471.1-1218.1h1920v24h-1920z"/><path clip-path="url(#b)" d="m-3471.1-1194.1h1920v24h-1920z"/></g><path d="m-798.2-644.8h378.7v360.4h-378.7z" fill="#58595b"/><image height="411" overflow="visible" transform="matrix(1 0 0 2.1019 -1291.2225 -803.0614)" width="375" xlink:href="8604E2B66299BBE7.png"/><path d="m-2337.3-941.8h1280v500h-1280z" fill="none" stroke="#ddd" stroke-miterlimit="10"/><path d="m-2337.3-941.8h1280v500h-1280z" fill="#58595b"/><circle cx="-647.2" cy="-387.6" fill="#d85530" r="49.4"/><path d="m-678.1-426.2-118.3 76.4v67.6h77.7l102.6-67.1z" fill="#d85530"/><circle cx="-561.6" cy="-545" fill="#3dc0cb" r="47.5"/><path d="m-531.9-507.9 113.9-73.6v-65h-74.8l-98.8 64.6z" fill="#3dc0cb"/><image height="1244" overflow="visible" transform="matrix(.1341 .02959901 -.02959901 .1341 -832.5086 -490.1855)" width="1920" xlink:href="../../../interactive-design-2/SAAS High-Fid/Moodboards/smartphone.png"/><path d="m-700.3-327.4c-.1 0-.2 0-.4 0l-54.6-12.1c-.4-.1-.8-.4-1.1-.8-.2-.4-.3-.9-.2-1.3l22.5-101.3c.2-.8.8-1.3 1.6-1.3h.4l54.2 12.5c.9.2 1.5 1.1 1.3 2.1l-22.1 100.9c-.2.7-.9 1.3-1.6 1.3z" fill="#375fa3"/><path d="m-732.5-443.5h.2l54.2 12.5c.4.1.7.6.6 1.1l-22 100.9c-.1.4-.4.7-.8.7-.1 0-.1 0-.2 0l-54.6-12.1c-.3-.1-.4-.3-.5-.4-.1-.2-.2-.5-.1-.7l22.5-101.3c0-.4.4-.7.7-.7m0-1.7c-1.2 0-2.2.8-2.5 2l-22.5 101.3c-.3 1.4.6 2.8 1.9 3.1l54.6 12.1c.2 0 .4.1.5.1 1.2 0 2.2-.8 2.5-2l22.1-100.9c.3-1.4-.5-2.8-1.9-3.1l-54.2-12.5c-.1-.1-.3-.1-.5-.1z" fill="#e2e3e1"/><path d="m-737.1-400.1 2.6 25.6c.1 1 1 1.8 2 1.7l34.9-3.6c1-.1 1.8-1 1.7-2l-2.2-21.9c-.1-1-1-1.8-2-1.7l-20.7 2.1c-1 .1-1.9-.6-2-1.7-.1-1-1-1.8-2-1.7l-10.5 1.1c-1.2.2-2 1.1-1.8 2.1z" fill="#3dc0cb"/><path d="m-709.9-429.2 16.9-7.9s2 3.7 5 3.6l-7.2 10.5s-.4 3.7-3.5 3.9c-3.2.2-11.1-8.2-11.2-10.1z" fill="#fff"/><path d="m-696.4-420.2 1.1-2.8 11.6-18.1.4 7.9z" fill="#bebec0"/><path d="m-716.7-408.2s10 5.4 13.5 1.7l-13.9 21.9s-4.2 1.3-5.1-.1z" fill="#ddd"/><path d="m-711.9-406.2 5.1-11.5s6 10.1 3.7 11.2-2.8 2.2-8.8.3z" fill="#fff"/><path d="m-671.4-454.7s4.7 20.6 10.6 22.5l13.6-1.8-3.6-21.9s-12.3 5.1-15.3 3.9-5.3-2.7-5.3-2.7z" fill="#ddd"/><path d="m-671.4-454.7s-.1-2.4 2.1-3.5l5.6 6.4s-3.3 1.5-7.7-2.9z" fill="#fff"/><path d="m-730.2-390.3s.8 14.8-4.3 15.8c0 0 .2 1.7 2 1.7s37.9-4 37.9-4 1.3 0 1.3-2.6-1.7-19.1-1.7-19.1l-35.7 3.7z" fill="#89d1d1"/><path d="m-629.2-467.8-1.9 11.1s4-8.5 6.5-8.5z" fill="#ddd"/><path d="m-609-460.1-8.5 15.9c-18.6 2.1-13.6-11.6-13.6-12.6s3.5-6 3.5-6 .2 4.5 4.6 5.3c4.3.8 14-2.6 14-2.6z" fill="#fff"/><path d="m-602.2-468.9-15.3-4.7s6.7-9.6 5.5-13.5l11.2 14.8s1.1 2-1.4 3.4z" fill="#bebec0"/><path d="m-615.4-470.1 8.9-.1-9.6-3z" fill="#fff"/><path d="m-616.5-475.1s-3.4-14.2-4.5-15.1c0 0 11.5-.1 9.4 6.4-2.2 7.3-3.5 7.3-4.9 8.7z" fill="#fff"/><path d="m-1133.4-774.8.1 23.5s5.2-19 10.2-19.9z" fill="#ddd"/><path d="m-1089-766.3-11.7 36c-37.6 11.1-32.3-19-32.6-20.9s5-13.7 5-13.7 2.1 9.3 11.3 9.2c9.3-.2 28-10.6 28-10.6z" fill="#fff"/><path d="m-317.9-650.2h378.7v360.4h-378.7z" fill="#58595b"/><path d="m-1317.1-259.3h765.1v203.8h-765.1z" fill="#fff"/><path d="m-835.1 51.1s-1.7-34.5 28.2-34.5c33.7 0 30.8 34.5 30.8 34.5l-10.4-.2s-1.5-26.3-19.1-25.4c-18.4 1-18.9 25.6-18.9 25.6z" fill="#e2e3e1"/><path d="m-339.9-650.2h729.8v370.7h-729.8z" fill="#3dc0cb"/><circle cx="164.3" cy="-443.8" fill="#db7458" r="66.3"/><path d="m112.8-410.5 99.6 160.6 90.6 1.7 48.8-29.5-134.3-214.1z" fill="#db7458"/><circle cx="-100" cy="-450.3" fill="#d95630" r="66.3"/><path d="m-47.3-490.3-98.3-161.4-90.6-2.4-59.4 12.4 143 231.8z" fill="#d95630"/><image height="3355" overflow="visible" transform="matrix(.08321908 -.0007543 .00097435 .1075 -508.8279 -649.2532)" width="5032" xlink:href="../../../interactive-design-2/SAAS High-Fid/Moodboards/Man with phone.png"/><path d="m254.1-514.2-2.4-1.7c-1-.7-1.8-1.5-2.5-2.5l-9.2-9.7-4.5-5.1c-1.4-1.6-2.6-3.2-3.7-5l-1.3-2c-1.5-2-2.2-2.6-4.3-3.9l-2.3-1.4-71.6-122.1 97.1-3.3 12.5 82.8z" fill="#d95630"/><path d="m-332.1-197.7-20.2 20.1-26.9 20.2-9.9-14 6.5-40.3h36z" fill="#f2f5f9"/><path d="m-166.3-459.4-9.2-5.5-1.2-2.4s-.5-.5-4-4-12.5-18.5-12.5-18.5l-3.5-6.2-1.6-1.6c0-1.1-.5-2.2-1.3-2.9-2.4-2.1-7.4-6.3-10.8-8.2-4.5-2.5-130.6-219.5-130.6-219.5l146.7 36.3 72 168.8z" fill="#db5630"/><path d="m-1041.7-5096.7h2085.1v814.5h-2085.1z" fill="none" stroke="#ddd" stroke-miterlimit="10" stroke-width="1.629"/><image height="346" overflow="visible" transform="matrix(1.629 0 0 1.629 -130.1071 -3963.6062)" width="454" xlink:href="5EB4C45C40382847.png"/><path d="m1639.6-2643.1-2749.6-478.7v-2074.1l2784.4-161.4z" fill="#58595b"/><circle cx="385.3" cy="-3834.5" fill="#d85530" r="189.4"/><path d="m266.9-3982.3-453.4 293v259h297.8l393.3-257.2z" fill="#d85530"/><image height="1244" overflow="visible" transform="matrix(.5139 .1134 -.1134 .5139 -324.8145 -4227.5039)" width="1920" xlink:href="../../../interactive-design-2/SAAS High-Fid/Moodboards/smartphone.png"/><path d="m181.8-3603.8c-.4 0-.9-.1-1.3-.1l-209.3-46.4c-1.7-.4-3.1-1.4-4-2.9s-1.2-3.3-.9-5.1l86.1-388.3c.7-3 3.2-5.2 6.2-5.2.5 0 .9.1 1.4.2l207.7 47.9c3.5.8 5.6 4.4 4.8 7.9l-84.5 386.8c-.7 3-3.3 5.2-6.2 5.2z" fill="#375fa3"/><path d="m58.6-4048.5c.2 0 .4 0 .7.1l207.7 47.9c1.7.4 2.8 2.2 2.4 4.1l-84.6 386.8c-.3 1.5-1.6 2.6-3 2.6-.2 0-.4 0-.6-.1l-209.3-46.4c-1.1-.2-1.7-1-2-1.4-.5-.8-.6-1.7-.4-2.6l86.1-388.3c.3-1.6 1.6-2.7 3-2.7m0-6.5c-4.4 0-8.4 3.1-9.4 7.7l-86.1 388.3c-1.2 5.4 2.1 10.7 7.4 11.9l209.3 46.4c.7.2 1.4.2 2.1.2 4.4 0 8.4-3.1 9.4-7.7l84.6-386.8c1.2-5.3-2.1-10.6-7.3-11.8l-207.7-47.9c-.9-.3-1.6-.3-2.3-.3z" fill="#e2e3e1"/><path d="m40.6-3882.2 10 98.2c.4 3.9 3.9 6.7 7.8 6.4l133.7-13.6c3.9-.4 6.7-3.9 6.4-7.8l-8.6-84.1c-.4-3.9-3.9-6.7-7.8-6.4l-79.5 8.1c-3.9.4-7.4-2.4-7.8-6.4-.4-3.9-3.9-6.7-7.8-6.4l-40 4.2c-3.9.4-6.8 3.9-6.4 7.8z" fill="#3dc0cb"/><path d="m145-3993.6 64.6-30.1s7.6 14.2 19.1 13.7l-27.6 40.2s-1.6 14.3-13.5 14.9c-11.8.5-42.2-31.4-42.6-38.7z" fill="#fff"/><path d="m196.7-3959.3 4.5-10.6 44.3-69.4 1.4 30.2z" fill="#bebec0"/><path d="m119-3913.3s38.2 20.5 51.6 6.7l-53.2 84s-16.2 4.9-19.5-.2z" fill="#ddd"/><path d="m137.2-3905.6 19.4-44s22.9 38.6 14 43c-8.8 4.4-10.3 8.1-33.4 1z" fill="#fff"/><path d="m292.5-4091.5s17.9 79 40.7 86.3l52.1-6.9-13.8-83.9s-47.2 19.5-58.6 15.1c-11.5-4.5-20.4-10.6-20.4-10.6z" fill="#ddd"/><path d="m292.5-4091.5s-.4-9.4 8.1-13.4l21.4 24.4c.1-.1-12.6 5.9-29.5-11z" fill="#fff"/><path d="m67.3-3844.6s3.1 56.7-16.6 60.7c0 0 .6 6.4 7.8 6.4s145.1-15.4 145.1-15.4 4.9 0 4.9-9.8-6.5-73.3-6.5-73.3l-136.9 14z" fill="#89d1d1"/><path d="m454.4-4141.7-7.3 42.4s15.5-32.6 24.8-32.6z" fill="#ddd"/><path d="m531.8-4112.2-32.6 61.1c-71.3 7.9-52.1-44.6-52.1-48.2 0-3.7 13.5-23.1 13.5-23.1s.8 17.4 17.5 20.2 53.7-10 53.7-10z" fill="#fff"/><path d="m558-4145.8-58.8-18.1s25.6-36.7 21.1-51.7l43.1 56.5c-.1 0 3.9 7.8-5.4 13.3z" fill="#bebec0"/><path d="m507.2-4150.4 34.2-.5-36.9-11.4z" fill="#fff"/><path d="m502.9-4169.5s-13.1-54.3-17.2-58c0 0 44-.2 36.2 24.7-8.6 27.6-13.4 27.6-19 33.3z" fill="#fff"/><text fill="#fff" transform="translate(0 110.9316)"/></svg>