<svg height="6in" viewBox="0 0 432 432" width="6in" xmlns="http://www.w3.org/2000/svg"><circle cx="216" cy="214.1" fill="#4f7862" r="209.6"/><path d="m128.7 244.7-26.6-12.8-8.9-5.1c-3.4 16-28.9 32.5-31.8 37.6-1 1.9-.5 4.4.5 6.9a21.8 21.8 0 0 0 10.5 11.3l5.7 3.1c7.9 4.4 18 .4 20.9-4.2s6.1-13.9 6.1-13.9c4.5-4.2 12.4-7.6 19.9-10.1-.5 4.8.1 9.9 3.7 13.4 8.5 8.6 36.3 5.6 36.3 5.6s9.4-5.4 0-31.8-36.3 0-36.3 0z" fill="#a7b868"/><path d="m374.4 146.9-10-1.3a19.1 19.1 0 0 0 -8.2.6c-15.2 4.3-23.1 16.3-24.6 22.3s-18.1 13.2-18.1 13.2l-108.5 75.1c52.6 13.8 85.6-8 85.6-8 6 5.9.9 24.3.9 24.3a9.8 9.8 0 0 0 7.8 6.9c6.4 1.2 23.3-2.7 23.3-2.7a48.4 48.4 0 0 0 4.9-9.3c12.1 1 24.8-2.9 17.2-10.8-3.8-4.1-7.6-11.3-10.8-19.2-.3-14.1-7.6-17.5-5.7-22.4s35.6-26.9 35.6-26.9 16.8.8 24.5-3.7 10.9-14.1 10.9-23.7-24.8-14.4-24.8-14.4z" fill="#a7b868"/><path d="m313.5 181.7s5.1 19.9-3.3 25.6l-3.6 4.5s-1.2 14.2-10.2 19.1c0 0-11.5 21.7-36.5 21.7 0 0-15.2 9.3-29.8 6.7l-6.8 1-21.7-3.5z" fill="#4f7862"/><g fill="#bca170"><path d="m96.5 172.3 6 9.4s-10.4 36.8-16.2 36.8-7.5-5.8-7.5-5.8 7.6-30.3 17.7-40.4z"/><path d="m106.6 224.4 6.9-15.7-12.9-21.6s-8.8 31.4-14.3 31.4a26.9 26.9 0 0 0 15.8 13.4s4.5-4.2 4.5-7.5z"/><path d="m145.1 215.2-31.6-6.5-11.4 23.2s6.8 10.6 26.6 12.8z"/><path d="m174.4 222.5-29.3-7.3-16.4 29.5s12.7 12.8 25.7 3z"/></g><path d="m219.7 139s-35.6 4.2-47.7 30.3l23.2 21.8h40.4l22.9-20.2s-2.1-21.4-38.8-31.9z" fill="#e8c797"/><path d="m235.6 216.3-11.3 10.5 4.1 28.2s17 6.9 30.1-6.2l-2.2-25.8z" fill="#bca170"/><path d="m186.5 254.5s-18.4 7-32.1-6.8l17.6-22.2 2.4-3 16.4 3.7z" fill="#bca170"/><path d="m224.3 226.8s-22.6.6-33.5-.6l-4.3 28.3s22.3 8.6 41.9.5z" fill="#bca170"/><path d="m235.6 191.1v25.2l20.7 6.7 24.9-10 7.1-13.7-5.6-23-24.2-5.4z" fill="#ddbd8a"/><path d="m296 166.4-13.3 9.9 5.6 23 13.5 11 6.6-7.9s3.1-18.2 1.1-22-13.5-14-13.5-14z" fill="#bca170"/><path d="m258.5 170.9s-4.3-20.1-31.8-29.2l14.7-7.8s35.6 10.1 54.6 32.5l-13.3 9.9z" fill="#ddbd8a"/><path d="m281.2 213 11.6 15.3s-12.3 16.5-34.3 20.5l-2.2-25.8z" fill="#bca170"/><path d="m288.3 199.3-7.1 13.7 11.6 15.3s9-6.7 9-18z" fill="#bca170"/><path d="m115.3 153.6s2.7 23.4 20.4 30.8l36.3-15.1-14-36.4s-23.9 2-42.7 20.7z" fill="#e8c797"/><path d="m224.3 140.5-24.5-11.9s-28.6-2.3-41.8 4.3l14 36.4s31.5-28.8 52.3-28.8z" fill="#edd5b5"/><path d="m241.4 133.9s-25.2-7.4-41.6-5.3l26.9 13.1z" fill="#e8c797"/><path d="m91.5 231.9s5.3 6.6 10.6 4.7c0 0 .6 8.8 23.7 12.2 0 0 12.3 13.2 25.8 4.5 0 0 9.8 4.8 16.7 2.9 0 0-10.7-5.2-13.9-8.5 0 0-11.1 9.1-25.7-3 0 0-16.1.1-26.6-12.8a22.4 22.4 0 0 1 -8.9-5.1z" fill="#4f7862"/><path d="m115.3 153.6s-12.8 6.6-18.8 18.7l3.8 17.4 13.2 19 21.4 4.9.8-29.2s-15.4-5.3-20.4-30.8z" fill="#ddbd8a"/><path d="m172 169.3 23.2 21.8-20.8 31.4-39.5-8.9.8-29.2z" fill="#ddbd8a"/><path d="m235.6 191.1v25.2l-11.3 10.5s-32 3-49.9-4.3l20.8-31.4z" fill="#ddbd8a"/></svg>